<svg width="49" height="49" viewBox="0 0 49 49" fill="none" xmlns="http://www.w3.org/2000/svg">
<path fill-rule="evenodd" clip-rule="evenodd" d="M33.669 32.2303C37.8488 32.3194 41.3095 29.0031 41.3986 24.8233C41.4876 20.6434 38.1714 17.1827 33.9915 17.0937L30.5721 17.0208C27.9829 16.9656 25.6698 18.2171 24.2629 20.171C24.045 20.4737 24.2962 20.8741 24.6691 20.882C27.6923 20.9464 30.1073 22.6827 30.063 24.7601C30.0187 26.8376 27.532 28.4694 24.5088 28.405C24.2327 28.3991 24.045 28.6963 24.2032 28.9226C25.5399 30.8341 27.7389 32.104 30.2495 32.1575L33.669 32.2303Z" fill="#FDD12C"/>
<path fill-rule="evenodd" clip-rule="evenodd" d="M23.3093 29.3649C23.814 28.7929 23.2286 27.9849 22.466 27.9687C19.5861 27.9073 17.2862 26.2276 17.3291 24.2169C17.3719 22.2061 19.7413 20.6259 22.6212 20.6872C23.3078 20.7019 23.843 19.9783 23.3979 19.4553C22.0448 17.865 20.0436 16.8385 17.7919 16.7905L15.2977 16.7374C11.1178 16.6483 7.65718 19.9646 7.56812 24.1444C7.47906 28.3243 10.7953 31.785 14.9752 31.874L17.4693 31.9272C19.7884 31.9766 21.886 30.9778 23.3093 29.3649Z" fill="#5A0789"/>
</svg>
